<?xml version="1.0" encoding="UTF-8"?>
<!DOCTYPE svg PUBLIC "-//W3C//DTD SVG 1.1//EN" "http://www.w3.org/Graphics/SVG/1.1/DTD/svg11.dtd">
<!-- Creator: CorelDRAW X7 -->
<svg xmlns="http://www.w3.org/2000/svg" xml:space="preserve" width="61.1497mm" height="21.1667mm" version="1.1" style="shape-rendering:geometricPrecision; text-rendering:geometricPrecision; image-rendering:optimizeQuality; fill-rule:evenodd; clip-rule:evenodd"
viewBox="0 0 943 326"
 xmlns:xlink="http://www.w3.org/1999/xlink">
 <defs>
  <style type="text/css">
   <![CDATA[
    .fil0 {fill:#001784}
    .fil1 {fill:red}
   ]]>
  </style>
 </defs>
 <g id="Capa_x0020_1">
  <metadata id="CorelCorpID_0Corel-Layer"/>
  <g id="_2697789571344">
   <path class="fil0" d="M918 166c13,0 25,12 25,25 0,14 -12,25 -25,25 -14,0 -25,-11 -25,-25 0,-13 11,-25 25,-25zm0 5c11,0 20,9 20,20 0,12 -9,21 -20,21 -12,0 -21,-9 -21,-21 0,-11 9,-20 21,-20zm-11 34l0 -27 12 0c3,0 5,0 6,0 1,1 2,2 3,3 1,1 1,3 1,4 0,2 -1,4 -2,5 -1,1 -3,2 -6,3 1,0 2,1 2,1 1,1 3,2 3,4l5 7 -4 0 -4 -5c-1,-2 -2,-3 -3,-4 0,-1 -1,-2 -2,-2 0,0 -1,-1 -1,-1 -1,0 -1,0 -2,0l-5 0 0 12 -3 0zm3 -15l8 0c2,0 3,0 4,-1 1,0 2,-1 3,-1 0,-1 0,-2 0,-3 0,-1 0,-2 -1,-3 -1,-1 -3,-1 -5,-1l-9 0 0 9z"/>
   <path class="fil0" d="M0 216l169 -216 69 0 0 216 -69 0 0 -125 -98 125 -71 0zm262 -206l158 0 78 77 77 -77 42 0 -98 98 98 99 -42 0 -77 -78 -78 78 -158 0 0 -35 150 0 65 -64 -65 -64 -150 0 0 -34zm-9 -10l172 0 73 73 72 -73 71 0 -108 108 108 108 -71 0 -72 -72 -73 72 -172 0 0 -53 154 0 55 -55 -55 -54 -154 0 0 -54zm641 216l-169 -216 -69 0 0 216 69 0 0 -125 98 125 71 0z"/>
   <path class="fil1" d="M276 88c13,0 23,10 23,23 0,13 -10,24 -23,24 -13,0 -23,-11 -23,-24 0,-13 10,-23 23,-23z"/>
   <path class="fil0" d="M96 284l26 0 -12 -33 -14 33zm-28 41c4,-5 8,-11 12,-18 4,-7 8,-15 12,-26 4,-8 7,-16 9,-22 2,-7 3,-11 3,-12 0,-1 0,-2 0,-2 0,-1 0,-2 -1,-2l16 0c7,20 12,38 18,52 5,14 10,24 14,30l-14 0 -13 -36 -30 0 -5 14 0 0c-4,8 -5,14 -5,18 0,0 0,1 0,2 0,0 0,1 0,2l-16 0zm123 0l-1 0c0,0 0,0 0,0 0,0 0,0 0,0l0 -1 0 -9c-2,4 -5,6 -8,8 -3,2 -6,3 -10,3 -3,0 -6,0 -8,-2 -3,-1 -5,-3 -6,-6 -1,-2 -2,-4 -2,-7 -1,-2 -1,-7 -1,-13l0 -2c0,-7 0,-14 0,-21 0,-2 0,-2 0,-3 0,-1 0,-2 0,-3 -1,0 -1,-1 -2,-1l8 -2c0,0 0,0 1,0 0,0 0,0 0,0 1,0 2,0 2,1 0,0 1,2 1,4l-1 29 0 1c0,6 1,11 3,13 2,3 5,4 9,4 5,0 8,-1 10,-4 2,-4 3,-10 3,-19l0 -14c0,-5 0,-8 0,-10 -1,-2 -2,-3 -2,-3l12 -2c0,3 0,8 0,14 -1,7 -1,13 -1,21l0 7c0,6 1,10 1,12 0,2 1,4 2,5l-10 0zm25 -53l-6 0 0 -4 7 0 0 -16 9 -3 0 19 10 0c1,0 1,0 1,0 0,0 0,0 0,0 0,2 -1,3 -3,3 -1,1 -4,1 -7,1l-1 0 -1 34 0 1c0,4 1,7 2,9 1,2 2,3 5,3 1,0 2,-1 3,-1 2,-1 3,-2 4,-3l0 6c-2,1 -4,3 -6,4 -2,1 -4,1 -6,1 -4,0 -7,-1 -9,-4 -1,-3 -2,-7 -2,-12l0 -1 0 -37zm56 -1c-5,0 -9,2 -12,6 -2,4 -4,10 -4,18 0,8 2,14 5,19 4,5 8,7 14,7 5,0 9,-2 11,-6 3,-4 4,-10 4,-19 0,-7 -2,-13 -5,-18 -3,-5 -7,-7 -13,-7zm3 -5c8,0 14,2 18,7 5,5 7,12 7,20 0,10 -2,18 -7,24 -5,6 -12,9 -21,9 -8,0 -15,-2 -19,-7 -5,-5 -7,-13 -7,-22 0,-9 2,-17 8,-22 5,-6 12,-9 21,-9zm59 56c5,0 9,-3 12,-7 3,-4 4,-10 4,-18 0,-7 -1,-13 -4,-17 -3,-4 -6,-7 -11,-7 -5,0 -8,2 -11,6 -2,4 -3,11 -3,19 0,9 1,15 3,19 2,3 5,5 10,5zm-23 3c0,-4 1,-9 1,-14 0,-6 0,-12 0,-18 0,-22 0,-37 -1,-44 0,-7 -2,-11 -3,-12l13 -2 0 43c2,-4 5,-7 8,-9 4,-2 8,-3 11,-3 7,0 11,3 15,8 4,5 6,12 6,20 0,10 -3,18 -8,24 -4,5 -11,8 -19,8 -3,0 -6,0 -9,-1 -4,0 -7,0 -8,0 -1,0 -2,0 -3,0 -1,0 -2,0 -3,0zm97 0l0 0c0,0 -1,0 -1,0 0,0 0,0 0,0l0 -1 0 -9c-2,4 -5,6 -8,8 -3,2 -6,3 -9,3 -4,0 -7,0 -9,-2 -3,-1 -5,-3 -6,-6 -1,-2 -2,-4 -2,-7 0,-2 -1,-7 -1,-13l0 -2c0,-7 0,-14 1,-21 0,-2 0,-2 0,-3 0,-1 -1,-2 -1,-3 0,0 -1,-1 -2,-1l8 -2c1,0 1,0 1,0 0,0 0,0 0,0 1,0 2,0 2,1 1,0 1,2 1,4l0 29 0 1c0,6 1,11 2,13 2,3 5,4 10,4 4,0 8,-1 10,-4 1,-4 2,-10 2,-19l0 -14c0,-5 0,-8 0,-10 -1,-2 -1,-3 -2,-3l12 -2c0,3 0,8 0,14 0,7 0,13 0,21l0 7c0,6 0,10 0,12 1,2 1,4 2,5l-10 0zm20 -14c1,3 3,6 6,8 2,2 5,3 9,3 4,0 7,-1 9,-3 3,-2 4,-5 4,-8 0,-3 -1,-5 -3,-6 -1,-2 -4,-5 -9,-7 -6,-3 -9,-6 -12,-9 -2,-2 -3,-5 -3,-8 0,-5 2,-9 6,-11 3,-3 8,-4 14,-4 2,0 4,0 6,1 3,0 5,0 8,1l-1 11c-1,-3 -3,-5 -5,-7 -3,-1 -5,-2 -8,-2 -3,0 -5,1 -7,3 -2,1 -3,3 -3,5 0,5 4,9 13,14 0,0 1,1 1,1 5,3 9,5 10,8 2,2 3,4 3,7 0,5 -2,9 -7,13 -4,3 -10,5 -16,5 -5,0 -9,0 -12,-1 -3,-1 -4,-3 -4,-5 0,0 0,-1 0,-3 0,-2 0,-4 1,-6zm58 -27l1 0c0,0 1,0 3,0 2,0 4,0 6,0l1 0c6,0 9,0 11,-1 1,0 2,-1 2,-3 0,-3 -1,-5 -3,-7 -2,-2 -5,-3 -8,-3 -3,0 -6,2 -9,4 -2,3 -4,6 -4,10zm33 27l0 1c0,4 -2,7 -6,10 -4,3 -9,4 -14,4 -8,0 -14,-2 -18,-8 -5,-5 -7,-12 -7,-22 0,-9 2,-16 7,-22 5,-5 11,-8 19,-8 6,0 11,2 15,5 3,3 5,7 5,12 0,2 -1,3 -3,4 -2,1 -9,1 -19,1 -4,0 -6,0 -8,0 -2,0 -3,0 -5,0 0,1 0,2 -1,3 0,1 0,3 0,4 0,7 2,13 5,17 4,4 8,6 14,6 3,0 6,0 9,-2 2,-1 5,-3 7,-5zm9 0c1,3 3,6 6,8 2,2 5,3 9,3 4,0 7,-1 9,-3 3,-2 4,-5 4,-8 0,-3 -1,-5 -3,-6 -1,-2 -4,-5 -9,-7 -6,-3 -9,-6 -11,-9 -3,-2 -4,-5 -4,-8 0,-5 2,-9 6,-11 3,-3 8,-4 14,-4 2,0 4,0 6,1 3,0 5,0 8,1l-1 11c-1,-3 -3,-5 -5,-7 -3,-1 -5,-2 -8,-2 -3,0 -5,1 -7,3 -2,1 -3,3 -3,5 0,5 4,9 13,14 0,0 1,1 1,1 5,3 9,5 11,8 1,2 2,4 2,7 0,5 -2,9 -7,13 -4,3 -10,5 -16,5 -5,0 -9,0 -12,-1 -3,-1 -4,-3 -4,-5 0,0 0,-1 0,-3 0,-2 0,-4 1,-6zm100 -27l26 0 -12 -33 -14 33zm-28 41c3,-5 7,-11 11,-18 4,-7 8,-15 13,-26 3,-8 6,-16 9,-22 2,-7 3,-11 3,-12 0,-1 0,-2 0,-2 0,-1 -1,-2 -1,-2l16 0c6,20 12,38 17,52 6,14 11,24 15,30l-14 0 -13 -36 -30 0 -6 14 0 0c-3,8 -5,14 -5,18 0,0 0,1 0,2 0,0 1,1 1,2l-16 0zm95 -41l1 0c0,0 1,0 3,0 2,0 4,0 5,0l2 0c6,0 9,0 11,-1 1,0 2,-1 2,-3 0,-3 -1,-5 -3,-7 -2,-2 -5,-3 -8,-3 -3,0 -6,2 -9,4 -2,3 -4,6 -4,10zm33 27l0 1c0,4 -2,7 -6,10 -4,3 -9,4 -14,4 -8,0 -14,-2 -19,-8 -4,-5 -6,-12 -6,-22 0,-9 2,-16 7,-22 5,-5 11,-8 19,-8 6,0 11,2 15,5 3,3 5,7 5,12 0,2 -1,3 -3,4 -2,1 -9,1 -20,1 -3,0 -5,0 -7,0 -2,0 -3,0 -5,0 0,1 -1,2 -1,3 0,1 0,3 0,4 0,7 2,13 5,17 4,4 8,6 14,6 3,0 6,0 9,-2 2,-1 5,-3 7,-5zm14 -44c1,0 1,0 1,0 0,0 0,0 0,0 1,0 2,0 3,1 0,0 1,2 2,4l8 16 9 -14c2,-3 4,-6 6,-8 3,-3 5,-5 8,-7l-20 33 12 22c1,3 3,6 4,7 2,2 3,3 4,4l-6 1c-1,0 -1,0 -1,0 -1,0 -1,0 -1,0 -2,0 -3,0 -4,-1 -1,-1 -2,-3 -3,-5l-11 -21 -9 16 0 1c-2,3 -3,6 -3,7 0,1 0,1 0,1 0,0 0,0 0,1l-12 0c3,-2 7,-7 12,-15 1,-1 1,-2 1,-2l8 -12 -9 -18c-2,-4 -3,-7 -4,-8 -1,-1 -2,-2 -3,-2l8 -1zm71 27c-10,4 -16,7 -18,9 -2,2 -4,4 -4,7 0,3 1,5 3,6 2,2 4,3 7,3 4,0 7,-2 9,-4 2,-3 3,-7 3,-12l0 -9zm2 31c-1,-1 -1,-2 -1,-4 0,-2 -1,-4 -1,-5 -1,3 -4,6 -6,7 -3,2 -6,3 -10,3 -4,0 -8,-1 -11,-4 -4,-2 -5,-6 -5,-9 0,-4 1,-6 4,-9 2,-2 8,-5 17,-9 5,-3 8,-5 10,-6 1,-1 1,-4 1,-7 0,-4 0,-7 -2,-9 -2,-2 -5,-3 -8,-3 -2,0 -4,1 -5,1 -1,1 -2,2 -3,3 0,0 -1,1 -2,2 -1,4 -3,6 -6,6 -1,0 -2,0 -3,-1 -1,-1 -1,-2 -1,-4 0,-3 2,-6 6,-8 5,-2 11,-3 18,-3 6,0 10,1 12,3 3,2 4,5 4,9 0,1 0,4 -1,10 0,5 0,10 0,15 0,7 0,11 1,15 1,4 2,6 3,7l-11 0z"/>
  </g>
 </g>
</svg>
